# xmcd
# 
# Track frame offsets:
#     150
#     23127
#     51329
#     75901
#     98199
#     137776
#     160221
#     181419
#     203285
#     227422
#     246981
# 
# Disc length: 3575
# 
# Revision: 3
# Processed by: cddbd v1.5.2PL0 Copyright (c) Steve Scherf et al.
# Submitted via: fre:ac v1.0.31
# 
DISCID=810df50b
DTITLE=Lee Ritenour - World Of Brazil
DYEAR=2005
DGENRE=Jazz
TTITLE0=Water To Drink (Agua De Beber)
TTITLE1=Latin Lovers (Incompatibilidada De Ginios)
TTITLE2=Linda (Voce É Linda)
TTITLE3=Dindi
TTITLE4=Stone Flower
TTITLE5=San Isidro
TTITLE6=Harlequin (Arlequim Desconhecido)
TTITLE7=Bahia Funk
TTITLE8=Asa
TTITLE9=Windmill
TTITLE10=É (Yeah!)
EXTD=YEAR: 2005
EXTT0=
EXTT1=
EXTT2=
EXTT3=
EXTT4=
EXTT5=
EXTT6=
EXTT7=
EXTT8=
EXTT9=
EXTT10=
PLAYORDER=
